<?xml version="1.0" encoding="UTF-8"?>
<svg width="602px" height="237px" viewBox="0 0 602 237" version="1.1" xmlns="http://www.w3.org/2000/svg" xmlns:xlink="http://www.w3.org/1999/xlink">
    <title>画板</title>
    <g id="画板" stroke="none" stroke-width="1" fill="none" fill-rule="evenodd">
        <g id="cat01" fill="#1F0DD4" fill-rule="nonzero">
            <path d="M215.339829,163.411029 C211.514428,159.00362 207.075863,154.663494 205.806385,148.9673 C204.573767,143.436682 206.589661,137.779103 207.955531,132.279348 C216.286635,98.7381612 199.450512,80.5363151 195.101611,59.7220857 C192.88679,49.1213094 193.783864,38.0945947 192.034328,27.4066415 C187.659244,0.680176305 166.94755,-7.97462309 145.210356,8.03609758 C123.615045,23.9429665 127.195736,34.5767998 74.493171,45.0409598 C61.475867,36.2728011 46.7398899,30.0658312 31.3727575,26.8786066 C15.0431681,23.4920159 6.11338103,29.3944516 7.48978229,50.106292 C8.74521821,69.0014582 13.0220085,87.6918464 20.108354,105.25303 C24.5735401,116.318067 22.5713955,118.112069 15.088073,125.844929 C-11.1381485,152.945845 4.40070491,198.798583 6.24019717,209.999944 C6.5747168,212.036609 6.27954382,214.758402 9.12712933,216.73217 C9.38441836,216.910473 11.1583816,217.521443 11.2018238,217.638606 C1.37598636,191.119844 -4.05999412,137.406553 22.8727119,129.379252 C31.9247807,126.681447 42.066269,130.674766 49.6781629,135.455603 C87.3690317,159.125024 67.7352017,196.788101 41.1013254,187.782254 C33.0541319,185.061192 26.7336563,178.217216 23.7449202,170.264951 C22.9715904,168.206932 20.6755893,165.611223 19.231465,167.268902 C16.9628164,169.872948 24.4948468,189.649684 43.0734846,192.551682 C50.2679238,193.675182 57.8584622,192.125743 64.7594836,194.449389 C75.5175002,198.071621 81.5468983,209.974493 91.9364606,214.546895 C101.5034,218.757279 114.786769,216.181463 120.720946,226.794526 C120.720946,226.794526 120.209147,228.514223 119.622457,230.862297 C119.316314,232.087601 119.165363,233.29506 118.708269,234.470486 C118.505685,234.9915 118.40827,235.639038 118.771751,236.063806 C119.134062,236.487404 121.61802,237.449715 122.27448,236.75581 C123.141861,235.838989 123.040642,234.96327 124.240203,230.338065 C124.419091,229.648401 125.819481,224.390432 126.442299,223.346502 C131.022014,215.671127 137.667356,209.218277 145.552482,204.999849 C172.931312,190.352365 192.49932,211.98834 190.19703,230.276778 C191.84915,231.524022 194.427306,230.430361 195.388593,228.597158 C197.583814,224.410617 193.598832,208.471861 180.681138,198.858993 C199.260361,166.293427 199.634813,164.099376 203.819599,163.046231 C208.524375,161.862322 212.666158,167.161978 212.730225,172.012879 C212.794291,176.863779 210.351142,181.342714 208.992001,185.999807 C204.231495,202.311844 215.082832,221.476147 231.519053,225.785263 C233.326219,226.210031 234.902133,226.074731 235.977949,224.727438 C236.503205,224.069661 236.775998,223.243528 236.790187,222.402036 C237.150011,201.008578 229.363763,179.571238 215.33822,163.409859 L215.339829,163.411029 Z M38.0751442,81.2555249 C34.3944044,84.0111066 31.1840692,86.3093018 26.8091317,79.1624004 C20.352625,68.6148664 19.6037223,62.5651368 18.4220065,57.4793268 C17.851407,55.0235988 17.2835866,52.4275978 18.0266385,50.0176523 C20.1980176,42.9751878 31.2362876,45.650906 35.6580315,48.188399 C38.5053244,49.8223818 48.6232632,54.1835699 49.0401329,64.6847362 C49.3035653,71.3218864 42.9706568,77.5916062 38.0754367,81.2556712 L38.0751442,81.2555249 Z M198.679669,149.9849 C195.82711,156.273928 194.284693,175.133112 164.234533,189.464652 C141.398851,200.356067 131.174574,204.916621 115.608514,204.226226 C97.1214416,203.40726 73.0892709,190.737933 71.0795203,189.450025 C70.0045816,188.761532 68.0574346,187.980888 69.1935142,186.562654 C69.6914175,185.941152 70.4302275,185.59303 70.9718656,185.034571 C72.1731815,183.795956 72.9735713,182.249735 74.0714744,180.914143 C78.235783,175.84808 77.0195474,167.856176 75.1082366,160.904399 C73.3641124,154.559935 71.7234011,147.94692 67.1894681,142.924883 C65.7939055,141.379394 64.7218922,139.503334 63.1990746,138.045607 C59.3167747,134.329177 65.3575819,135.558869 76.4710347,115.398613 C81.1889754,106.839767 85.0632305,101.471071 86.7551363,81.9203224 C87.2632785,76.047872 88.0978954,69.2120871 85.967472,63.578057 C84.9656684,60.9286674 83.6002374,57.3896633 81.7859036,55.2026334 C77.4551396,49.9824012 89.1388994,47.6091695 91.8838034,46.849004 C103.603692,43.6032714 115.954004,42.0226772 118.864778,42.0260414 C120.480039,42.0277966 121.431818,42.1120482 122.795786,40.9889866 C126.149174,38.2278467 128.382864,33.190891 131.247417,29.8367723 C136.803777,23.3303875 142.838587,17.4340951 150.163061,12.954282 C154.826881,10.1017234 161.751014,5.8253719 167.53263,6.73166119 C182.91439,9.14277684 192.963143,40.2026388 185.16256,61.0885405 C184.563438,62.6929768 184.453736,63.6775206 185.560707,65.1504601 C198.077914,81.8062317 201.227693,89.8262191 203.216966,109.856441 C204.716673,124.960287 201.443296,143.890558 198.678645,149.985632 L198.679669,149.9849 Z" id="形状"></path>
            <path d="M60.7528541,155.995137 C61.6645554,156.895429 64.2804492,160.150523 64.217553,161.44238 C64.1413463,163.011127 62.5298891,164.388844 60.9728443,163.876168 C59.7716746,163.480654 54.865338,159.480021 54.8909353,155.168126 C54.9029294,153.156767 58.4246736,153.696357 60.7528541,155.995137 L60.7528541,155.995137 Z" id="路径"></path>
            <path d="M47.3749945,169.027799 C46.300641,168.261783 46.1091734,166.756957 45.6766529,165.657591 C44.2807977,162.110396 41.8803598,162.81571 42.467049,160.731947 C43.1691453,158.238481 44.8689496,158.963688 46.4998608,160.311274 C47.7820641,161.370708 49.0826975,162.450181 50.0131213,163.828776 C50.5433503,164.614539 52.3626573,169.036575 50.362268,169.172899 C49.3936676,169.239013 48.231552,169.638477 47.3749945,169.027799 L47.3749945,169.027799 Z" id="路径"></path>
            <path d="M35.726047,175.873238 C33.2603726,175.784306 35.1636387,172.910099 31.2664192,167.744426 C30.9267801,167.294207 30.8352151,165.5533 31.1913827,165.130287 C32.3438445,163.7612 34.8117129,166.138088 35.9273146,167.500594 C39.1799219,171.473142 38.5138081,175.973726 35.726047,175.873238 L35.726047,175.873238 Z" id="路径"></path>
            <path d="M144.10631,169.042426 C143.462722,168.897911 142.958383,168.484699 142.301776,168.390647 C139.557457,167.997619 137.334299,171.731894 136.413675,173.812147 C133.64098,180.078356 117.569703,179.214924 113.893937,173.634429 C112.296229,171.208832 113.364878,167.991476 114.939329,167.513027 C116.214219,167.125557 117.35103,168.329799 118.276334,169.288453 C121.54313,172.672849 127.187691,174.472702 131.365603,171.619851 C133.58569,170.103908 134.209239,167.992061 135.000706,165.585772 C136.270769,161.724243 134.417528,156.207375 134.463164,154.038336 C134.539517,150.412301 123.242788,152.879146 121.885987,147.088607 C121.479795,145.355307 122.37292,143.582514 123.452685,142.167058 C130.353707,133.120255 144.081152,134.225472 145.915378,138.626299 C147.101775,141.472714 143.991781,145.414546 142.279982,148.916251 C140.755702,152.03429 140.710066,155.127024 141.328057,158.486994 C142.533322,165.039161 156.581098,165.583286 158.008694,159.95496 C158.472955,158.125268 158.804403,156.250232 158.718981,154.316396 C158.600649,151.630146 162.298064,151.679293 164.049794,152.329317 C166.665102,153.299672 165.376024,157.088359 165.256961,159.203863 C165.039164,163.074023 163.407814,163.206982 160.215763,166.133261 C158.974662,167.27095 157.930878,168.515562 156.180757,168.831651 C153.49363,169.316975 145.758138,169.41366 144.105432,169.042426 L144.10631,169.042426 Z" id="路径"></path>
            <path d="M164.52561,54.8903468 C161.384022,54.1721608 159.400015,53.0031705 148.617279,47.5199448 C144.691829,45.5239436 136.817234,44.573627 143.292902,34.7403297 C146.841853,29.3511557 151.525566,23.8256579 157.148334,20.5484772 C160.850282,18.3908476 165.985385,16.7434079 170.143112,18.5571567 C172.86666,19.7456009 174.016782,22.9402852 174.585041,25.6344335 C175.359834,29.3075672 176.327995,32.9470588 176.555738,36.7165845 C177.171973,46.9120464 174.602155,57.1943928 164.526049,54.8906393 L164.52561,54.8903468 Z M163.907766,23.540285 C158.5104,22.9244881 153.794507,30.5049339 150.949701,34.0641232 C147.698118,38.1323324 149.990023,39.0532487 153.730002,41.9997128 C158.482463,45.7436412 166.074464,48.7999541 167.828242,49.0623626 C169.753156,49.3503683 169.727559,48.2118022 169.731191,46.5168247 C169.740723,42.0083427 169.176559,37.5011771 168.089919,33.1266784 C167.517711,30.8221936 166.460763,23.8315087 163.907766,23.540285 Z" id="形状"></path>
            <path d="M164.627999,111.618264 C159.654964,113.793446 160.286119,117.1246 158.474857,119.853853 C156.055696,123.499049 147.417718,115.886717 159.479001,109.234793 C162.635801,107.493741 164.739165,104.163171 170.107715,106.043181 C177.644133,108.682331 177.483236,113.614265 174.061248,114.287839 C169.657788,115.154489 169.407666,109.527772 164.627999,111.618264 L164.627999,111.618264 Z" id="路径"></path>
            <path d="M86.6338784,138.663598 C86.2259312,139.26389 86.0830254,140.100116 85.589949,140.656235 C85.0572334,141.257112 83.6786381,141.786463 82.9080875,141.434977 C80.7703505,140.459648 80.2734711,138.979395 81.3059915,136.916256 C85.4986765,128.538492 90.3476752,127.202022 99.5283155,129.18442 C101.218173,129.549364 102.859031,130.404166 103.584823,132.305385 C104.295257,134.166671 101.739334,135.142439 100.267272,134.980371 C97.9357271,134.723521 92.6606436,129.797438 86.6340247,138.663598 L86.6338784,138.663598 Z" id="路径"></path>
            <path d="M87.3111088,170.549008 C86.4927278,171.761879 84.4205199,172.524678 84.182831,172.543839 C82.722617,172.662025 81.5101845,170.536721 81.7458256,169.286405 C82.5982875,164.763003 90.9744424,161.701717 93.9130079,164.289673 C96.0962348,166.212247 96.1017931,169.429603 91.4758562,169.383967 C89.6628388,169.366122 88.4760035,168.82229 87.3111088,170.549008 L87.3111088,170.549008 Z" id="路径"></path>
            <path d="M98.932265,178.125797 C98.9126648,179.623895 97.5848252,180.210438 96.3071562,180.46407 C94.7920909,180.764801 93.6307067,180.767434 92.7953584,182.314094 C92.1933108,183.428818 90.887558,184.30088 89.706281,184.689666 C86.9202752,185.606633 84.7705441,183.425893 85.9225671,181.269726 C86.2551852,180.647347 86.7598169,180.137157 87.2571351,179.63662 C88.80555,178.078698 90.9700543,174.618241 93.4167136,175.001615 C94.9000382,175.234038 96.3652254,175.368606 97.7113488,176.090303 C98.835873,176.692935 98.9485009,176.868606 98.932265,178.125797 L98.932265,178.125797 Z" id="路径"></path>
            <path d="M180.512928,130.16677 C178.917999,130.753752 177.378068,132.30319 175.556713,132.028788 C174.227996,131.828544 173.09177,129.977204 173.318196,128.667063 C173.545646,127.35151 175.945791,126.720647 176.980506,126.295587 C178.55247,125.649951 184.796593,123.41509 186.854905,123.596465 C188.630185,123.752974 188.374066,125.782032 187.995665,127.560091 C187.956172,127.745708 187.816338,127.976961 187.656757,128.059604 C186.597616,128.608409 185.764608,129.232689 184.562561,129.47345 C183.217607,129.743026 181.815316,129.687443 180.512928,130.16677 L180.512928,130.16677 Z" id="路径"></path>
            <path d="M91.7167629,151.255987 C93.210034,151.423905 93.4904337,153.4025 93.2224669,154.586264 C92.8474305,156.24248 91.1942863,156.52756 89.8181776,157.155936 C88.7624003,157.638042 82.8100865,160.347256 81.50448,160.466613 C78.3361242,160.756227 79.8955093,158.083142 81.1137926,156.83107 C83.9783455,153.886947 90.4254909,151.110741 91.7167629,151.255987 Z" id="路径"></path>
            <path d="M183.686988,153.567054 C181.978407,153.97544 181.043157,153.370906 180.418437,151.692457 C180.109369,150.862374 180.605078,149.900502 181.333942,149.480561 C183.49318,148.236681 197.401708,149.680951 194.046857,153.261788 C189.443154,158.174561 189.569385,152.161399 183.686988,153.567054 Z" id="路径"></path>
            <path d="M187.416875,138.609478 C185.524286,138.239268 183.587817,139.464573 181.522776,140.099092 C180.525653,140.405382 179.624337,140.1086 178.821168,139.781394 C178.004542,139.448483 178.441451,138.163354 178.793816,137.606065 C179.338379,136.744827 180.371046,136.42274 181.309076,136.186368 C190.401369,133.895925 190.412193,133.396852 191.756853,134.069109 C192.839106,134.973789 193.102099,136.180663 192.739934,137.447508 C192.599369,137.939268 191.908097,138.139658 191.315703,138.255358 C190.160169,138.481053 188.991033,138.49451 187.416875,138.609478 Z" id="路径"></path>
        </g>
        <text id="Z-Blog" font-family="PingFangSC-Regular, PingFang SC" font-size="100" font-weight="normal" fill="#2C00DD">
            <tspan x="246.1" y="167">Z-Blog</tspan>
        </text>
    </g>
</svg>